<svg width="636" height="191" viewBox="0 0 636 191" fill="none" xmlns="http://www.w3.org/2000/svg">
<path d="M129.919 7.21818C58.0277 26.9935 -32.7559 13.4887 11.8175 115.617C28.8314 154.6 54.776 196.467 180 185.653C252.069 179.429 438 199.334 548.335 185.653C630.716 175.438 661.498 60.7614 609.405 32.0574C535.5 -8.66595 336.173 1.00201 297.318 1.00225C258.478 1.0025 164.554 -2.30918 129.919 7.21818Z" fill="#493123"/>
<path d="M100.57 91.734C105.043 92.6873 108.637 94.924 111.35 98.444C114.063 101.891 115.42 105.851 115.42 110.324C115.42 116.777 113.147 121.911 108.6 125.724C104.127 129.464 97.8567 131.334 89.79 131.334H53.82V54.114H88.58C96.4267 54.114 102.55 55.9106 106.95 59.504C111.423 63.0973 113.66 67.974 113.66 74.134C113.66 78.6806 112.45 82.4573 110.03 85.464C107.683 88.4706 104.53 90.5606 100.57 91.734ZM72.63 85.354H84.95C88.03 85.354 90.3767 84.694 91.99 83.374C93.6767 81.9806 94.52 79.964 94.52 77.324C94.52 74.684 93.6767 72.6673 91.99 71.274C90.3767 69.8807 88.03 69.184 84.95 69.184H72.63V85.354ZM86.49 116.154C89.6433 116.154 92.0633 115.457 93.75 114.064C95.51 112.597 96.39 110.507 96.39 107.794C96.39 105.081 95.4733 102.954 93.64 101.414C91.88 99.874 89.4233 99.104 86.27 99.104H72.63V116.154H86.49ZM145.14 80.184C147.34 76.8106 150.09 74.1706 153.39 72.264C156.69 70.284 160.356 69.294 164.39 69.294V89.204H159.22C154.526 89.204 151.006 90.2306 148.66 92.284C146.313 94.264 145.14 97.784 145.14 102.844V131.334H126.33V69.954H145.14V80.184ZM201.321 132.214C195.307 132.214 189.881 130.931 185.041 128.364C180.274 125.797 176.497 122.131 173.711 117.364C170.997 112.597 169.641 107.024 169.641 100.644C169.641 94.3373 171.034 88.8007 173.821 84.034C176.607 79.194 180.421 75.4906 185.261 72.924C190.101 70.3573 195.527 69.074 201.541 69.074C207.554 69.074 212.981 70.3573 217.821 72.924C222.661 75.4906 226.474 79.194 229.261 84.034C232.047 88.8007 233.441 94.3373 233.441 100.644C233.441 106.951 232.011 112.524 229.151 117.364C226.364 122.131 222.514 125.797 217.601 128.364C212.761 130.931 207.334 132.214 201.321 132.214ZM201.321 115.934C204.914 115.934 207.957 114.614 210.451 111.974C213.017 109.334 214.301 105.557 214.301 100.644C214.301 95.7306 213.054 91.954 210.561 89.314C208.141 86.674 205.134 85.354 201.541 85.354C197.874 85.354 194.831 86.674 192.411 89.314C189.991 91.8806 188.781 95.6573 188.781 100.644C188.781 105.557 189.954 109.334 192.301 111.974C194.721 114.614 197.727 115.934 201.321 115.934ZM280.82 69.294C288.006 69.294 293.726 71.6407 297.98 76.334C302.306 80.954 304.47 87.334 304.47 95.474V131.334H285.77V98.004C285.77 93.8973 284.706 90.7073 282.58 88.434C280.453 86.1606 277.593 85.024 274 85.024C270.406 85.024 267.546 86.1606 265.42 88.434C263.293 90.7073 262.23 93.8973 262.23 98.004V131.334H243.42V69.954H262.23V78.094C264.136 75.3806 266.703 73.254 269.93 71.714C273.156 70.1006 276.786 69.294 280.82 69.294ZM335.141 115.824H361.761V131.334H314.131V116.374L339.651 85.464H314.351V69.954H361.211V84.914L335.141 115.824ZM381.571 63.574C378.271 63.574 375.558 62.6206 373.431 60.714C371.378 58.734 370.351 56.314 370.351 53.454C370.351 50.5206 371.378 48.1006 373.431 46.194C375.558 44.214 378.271 43.224 381.571 43.224C384.798 43.224 387.438 44.214 389.491 46.194C391.618 48.1006 392.681 50.5206 392.681 53.454C392.681 56.314 391.618 58.734 389.491 60.714C387.438 62.6206 384.798 63.574 381.571 63.574ZM390.921 69.954V131.334H372.111V69.954H390.921ZM438.762 115.384V131.334H429.192C422.372 131.334 417.056 129.684 413.242 126.384C409.429 123.011 407.522 117.547 407.522 109.994V85.574H400.042V69.954H407.522V54.994H426.332V69.954H438.652V85.574H426.332V110.214C426.332 112.047 426.772 113.367 427.652 114.174C428.532 114.981 429.999 115.384 432.052 115.384H438.762ZM507.1 99.654C507.1 101.414 506.99 103.247 506.77 105.154H464.2C464.493 108.967 465.703 111.901 467.83 113.954C470.03 115.934 472.707 116.924 475.86 116.924C480.553 116.924 483.817 114.944 485.65 110.984H505.67C504.643 115.017 502.773 118.647 500.06 121.874C497.42 125.101 494.083 127.631 490.05 129.464C486.017 131.297 481.507 132.214 476.52 132.214C470.507 132.214 465.153 130.931 460.46 128.364C455.767 125.797 452.1 122.131 449.46 117.364C446.82 112.597 445.5 107.024 445.5 100.644C445.5 94.264 446.783 88.6906 449.35 83.924C451.99 79.1573 455.657 75.4906 460.35 72.924C465.043 70.3573 470.433 69.074 476.52 69.074C482.46 69.074 487.74 70.3206 492.36 72.814C496.98 75.3073 500.573 78.864 503.14 83.484C505.78 88.104 507.1 93.494 507.1 99.654ZM487.85 94.704C487.85 91.4773 486.75 88.9106 484.55 87.004C482.35 85.0973 479.6 84.144 476.3 84.144C473.147 84.144 470.47 85.0606 468.27 86.894C466.143 88.7273 464.823 91.3307 464.31 94.704H487.85Z" fill="white"/>
<path d="M521.082 148.902C518.952 148.902 517.201 148.287 515.828 147.056C514.503 145.778 513.84 144.216 513.84 142.37C513.84 140.477 514.503 138.891 515.828 137.613C517.201 136.335 518.952 135.696 521.082 135.696C523.165 135.696 524.869 136.335 526.194 137.613C527.567 138.891 528.253 140.477 528.253 142.37C528.253 144.216 527.567 145.778 526.194 147.056C524.869 148.287 523.165 148.902 521.082 148.902ZM541.475 104.598C539.345 104.598 537.594 103.983 536.221 102.752C534.896 101.474 534.233 99.912 534.233 98.066C534.233 96.1726 534.896 94.6106 536.221 93.38C537.594 92.102 539.345 91.463 541.475 91.463C543.558 91.463 545.262 92.102 546.587 93.38C547.96 94.6106 548.646 96.1726 548.646 98.066C548.646 99.912 547.96 101.474 546.587 102.752C545.262 103.983 543.558 104.598 541.475 104.598ZM547.581 153.446C547.581 158.321 546.35 161.824 543.889 163.954C541.428 166.131 537.996 167.22 533.594 167.22H528.837V156.925H531.748C533.073 156.925 534.02 156.665 534.588 156.144C535.156 155.623 535.44 154.771 535.44 153.588V108.716H547.581V153.446ZM572.427 148.902C568.972 148.902 565.895 148.31 563.197 147.127C560.499 145.944 558.369 144.334 556.807 142.299C555.245 140.216 554.37 137.897 554.18 135.341H566.179C566.321 136.714 566.96 137.826 568.096 138.678C569.232 139.53 570.629 139.956 572.285 139.956C573.8 139.956 574.96 139.672 575.764 139.104C576.616 138.489 577.042 137.708 577.042 136.761C577.042 135.625 576.451 134.797 575.267 134.276C574.084 133.708 572.167 133.093 569.516 132.43C566.676 131.767 564.31 131.081 562.416 130.371C560.523 129.614 558.89 128.454 557.517 126.892C556.145 125.283 555.458 123.129 555.458 120.431C555.458 118.159 556.074 116.1 557.304 114.254C558.582 112.361 560.428 110.87 562.842 109.781C565.304 108.692 568.215 108.148 571.575 108.148C576.545 108.148 580.45 109.379 583.29 111.84C586.178 114.301 587.834 117.567 588.26 121.638H577.042C576.853 120.265 576.238 119.177 575.196 118.372C574.202 117.567 572.877 117.165 571.22 117.165C569.8 117.165 568.712 117.449 567.954 118.017C567.197 118.538 566.818 119.271 566.818 120.218C566.818 121.354 567.41 122.206 568.593 122.774C569.824 123.342 571.717 123.91 574.273 124.478C577.208 125.235 579.598 125.993 581.444 126.75C583.29 127.46 584.9 128.643 586.272 130.3C587.692 131.909 588.426 134.087 588.473 136.832C588.473 139.151 587.811 141.234 586.485 143.08C585.207 144.879 583.338 146.299 580.876 147.34C578.462 148.381 575.646 148.902 572.427 148.902Z" fill="white"/>
</svg>
